<svg width="33" height="33" viewBox="0 0 33 33" fill="none" xmlns="http://www.w3.org/2000/svg">
<path d="M11.9217 6.3697L11.2729 4.91007C10.8488 3.95569 10.6367 3.47848 10.3195 3.11329C9.92198 2.65562 9.40383 2.3189 8.82416 2.14154C8.36163 2 7.83942 2 6.79501 2C5.26719 2 4.50328 2 3.86201 2.29369C3.10662 2.63964 2.42443 3.39084 2.15262 4.17596C1.92187 4.84246 1.98798 5.52741 2.12015 6.89729C3.52719 21.4786 11.5214 29.4728 26.1027 30.8798C27.4726 31.0121 28.1577 31.0781 28.824 30.8474C29.6093 30.5756 30.3604 29.8933 30.7065 29.138C31 28.4966 31 27.7328 31 26.205C31 25.1605 31 24.6383 30.8585 24.1758C30.6812 23.5961 30.3444 23.078 29.8867 22.6805C29.5216 22.3633 29.0444 22.1513 28.09 21.7271L26.6303 21.0783C25.5968 20.6189 25.08 20.3894 24.5549 20.3394C24.0522 20.2916 23.5455 20.3621 23.0751 20.5453C22.5835 20.7367 22.1492 21.0987 21.2801 21.8228C20.4153 22.5436 19.9829 22.904 19.4544 23.097C18.9859 23.2681 18.3666 23.3316 17.8733 23.2588C17.3166 23.1767 16.8905 22.9491 16.0381 22.4935C13.3862 21.0763 11.9237 19.6139 10.5065 16.9619C10.051 16.1096 9.82321 15.6833 9.74119 15.1268C9.66848 14.6334 9.73186 14.014 9.903 13.5457C10.096 13.0172 10.4564 12.5848 11.1772 11.7198C11.9013 10.8509 12.2633 10.4165 12.4548 9.9249C12.6379 9.45451 12.7085 8.94775 12.6607 8.44521C12.6107 7.92005 12.381 7.40328 11.9217 6.3697Z" stroke="white" stroke-width="3" stroke-linecap="round"/>
</svg>
