<?xml version="1.0" standalone="no"?>
<!DOCTYPE svg PUBLIC "-//W3C//DTD SVG 20010904//EN"
 "http://www.w3.org/TR/2001/REC-SVG-20010904/DTD/svg10.dtd">
<svg version="1.0" xmlns="http://www.w3.org/2000/svg"
 width="1024.000000pt" height="1024.000000pt" viewBox="0 0 1024.000000 1024.000000"
 preserveAspectRatio="xMidYMid meet">

<g transform="translate(0.000000,1024.000000) scale(0.100000,-0.100000)"
fill="#265A3F" stroke="none">
<path d="M2055 8406 c-106 -46 -145 -197 -76 -293 37 -51 84 -73 155 -73 l56
0 -2 -666 -3 -667 -90 2 c-256 5 -412 -64 -493 -216 -49 -94 -52 -130 -52
-577 l0 -414 -62 -98 c-225 -356 -299 -786 -206 -1189 45 -194 117 -358 237
-536 68 -102 263 -329 281 -329 6 0 10 -3 10 -7 0 -5 -91 -8 -203 -8 l-203 0
-43 -28 c-127 -84 -97 -288 49 -327 25 -7 727 -9 2079 -8 1122 2 2040 1 2038
-2 -2 -3 -13 -27 -26 -54 -21 -43 -22 -54 -12 -88 15 -50 33 -70 286 -313 267
-256 233 -248 441 -108 l110 74 75 -34 c41 -18 108 -46 149 -62 41 -15 76 -29
78 -30 1 -1 14 -60 27 -131 26 -132 39 -161 89 -198 27 -20 38 -21 372 -19
443 3 423 -6 464 205 l25 130 122 52 c67 29 133 60 147 70 27 17 27 17 152
-68 68 -47 135 -88 148 -92 53 -13 108 28 329 245 120 119 223 228 232 248 31
66 18 108 -74 233 l-81 111 31 61 c17 34 46 100 64 147 19 47 39 89 47 92 7 4
62 14 123 24 117 18 147 29 182 67 37 39 44 114 41 432 -3 279 -4 296 -24 323
-28 39 -85 66 -201 94 l-101 24 -21 70 c-12 39 -41 116 -66 173 l-43 103 77
103 c43 56 80 115 83 131 11 56 -11 97 -105 195 -228 237 -364 372 -389 386
-58 31 -88 21 -249 -77 l-96 -59 -89 48 c-49 27 -121 62 -160 78 l-71 29 -12
93 c-16 120 -35 183 -63 210 -35 32 -92 52 -152 52 l-54 0 -4 213 c-4 186 -7
220 -27 276 -27 78 -42 103 -100 164 -66 70 -125 97 -235 108 -50 4 -366 9
-703 9 l-612 0 -25 83 c-24 79 -76 259 -281 965 l-96 333 27 55 c22 46 26 63
21 106 -8 67 -44 120 -99 147 l-44 21 -1535 0 c-1245 -1 -1540 -3 -1564 -14z
m1123 -1031 l-3 -666 -318 -2 -317 -2 0 668 0 667 320 0 320 0 -2 -665z m1933
-52 l204 -718 3 -337 3 -338 -438 0 -438 0 -58 115 c-156 308 -364 510 -624
604 -43 16 -113 34 -155 41 l-78 13 0 668 0 669 688 0 688 0 205 -717z m-1547
-988 c228 -48 428 -235 543 -508 51 -119 95 -174 168 -212 l59 -30 570 0 c558
0 572 0 616 21 66 31 110 72 136 129 23 49 24 57 24 333 l0 282 630 0 c619 0
630 0 650 -20 19 -19 20 -31 18 -200 l-3 -180 -100 -3 c-178 -5 -217 -48 -230
-254 -4 -62 -11 -113 -15 -113 -19 0 -183 -74 -254 -115 l-78 -44 -86 58 c-48
32 -101 65 -119 75 -41 21 -95 21 -136 0 -37 -20 -440 -415 -467 -459 -18 -29
-25 -66 -22 -112 1 -12 38 -70 82 -128 l79 -106 -16 -34 -17 -35 -597 0 -596
0 -7 63 c-59 532 -418 1027 -911 1258 -239 112 -506 159 -784 138 -269 -20
-504 -99 -726 -243 l-70 -45 -3 232 c-2 227 -2 232 19 250 20 16 73 17 798 17
643 0 788 -3 845 -15z m-534 -566 c155 -22 360 -105 497 -201 247 -173 419
-426 496 -726 19 -76 22 -112 21 -287 0 -184 -2 -208 -27 -297 -88 -328 -294
-599 -582 -765 -101 -58 -235 -109 -355 -133 -129 -27 -349 -30 -480 -6 -390
70 -709 315 -887 682 -251 518 -87 1162 385 1512 264 196 579 270 932 221z
m4235 -279 c11 -171 24 -186 204 -235 113 -31 228 -83 339 -154 82 -53 131
-69 176 -57 14 3 67 35 119 70 l94 65 49 -52 c27 -29 64 -68 83 -88 l33 -37
-66 -86 c-36 -47 -69 -98 -72 -112 -12 -48 2 -108 40 -167 68 -105 127 -261
147 -387 21 -133 53 -161 208 -187 l101 -16 0 -123 c0 -142 13 -128 -125 -140
-127 -10 -164 -39 -196 -155 -36 -132 -75 -221 -179 -408 -49 -88 -40 -127 59
-255 l62 -79 -28 -31 c-15 -17 -52 -56 -82 -88 l-53 -56 -105 78 c-58 43 -118
81 -133 84 -40 7 -77 -6 -152 -53 -101 -64 -224 -117 -333 -146 -155 -39 -180
-68 -196 -216 -5 -51 -10 -94 -12 -95 -1 -2 -59 -4 -127 -5 l-125 -1 -18 107
c-25 155 -44 176 -187 210 -101 23 -216 72 -328 138 -147 87 -172 85 -315 -26
l-82 -64 -87 81 -87 81 60 80 c79 104 91 128 91 182 0 35 -9 58 -37 102 -63
97 -133 253 -158 348 -13 51 -32 103 -41 117 -24 38 -69 57 -149 62 -123 9
-127 10 -127 17 0 4 0 63 0 132 l0 125 43 0 c60 1 160 23 191 43 41 27 55 57
71 153 27 150 71 266 177 457 35 62 20 105 -76 226 l-59 73 85 85 86 85 90
-62 c78 -54 98 -64 144 -67 50 -4 58 -1 133 47 146 94 240 133 452 189 55 15
99 65 106 122 3 24 9 79 13 122 l6 77 133 0 133 0 7 -110z m-2032 -1188 c-47
-36 -51 -67 -54 -398 -4 -426 -21 -403 327 -461 26 -4 33 -11 43 -45 7 -22 14
-45 17 -52 3 -8 -216 -11 -866 -11 -478 0 -870 0 -870 0 0 0 55 56 123 125
131 133 219 254 292 400 48 96 107 263 124 355 7 33 14 70 17 83 l4 22 433 0
c411 0 431 -1 410 -18z"/>
<path d="M2665 5294 c-38 -8 -117 -38 -174 -66 -91 -43 -116 -62 -191 -137
-95 -95 -150 -187 -192 -321 -33 -108 -33 -311 1 -420 46 -150 133 -281 246
-373 78 -63 220 -131 319 -153 105 -22 271 -15 371 16 334 105 541 404 521
755 -7 122 -25 195 -76 300 -89 184 -249 320 -455 385 -93 29 -270 36 -370 14z
m325 -376 c85 -39 144 -98 187 -186 36 -73 38 -80 38 -177 0 -87 -4 -107 -27
-157 -55 -117 -170 -205 -302 -229 -115 -21 -248 22 -335 109 -156 156 -158
400 -5 556 85 85 166 117 294 113 77 -2 105 -8 150 -29z"/>
<path d="M6995 4881 c-164 -28 -315 -94 -440 -194 -174 -138 -298 -349 -336
-571 -17 -99 -6 -303 20 -391 117 -394 441 -649 851 -671 416 -23 796 263 912
684 29 106 31 343 4 446 -75 283 -277 523 -527 628 -146 61 -352 90 -484 69z
m295 -379 c98 -34 143 -63 221 -141 84 -84 128 -161 154 -272 53 -227 -48
-470 -249 -601 -206 -133 -490 -106 -672 65 -115 107 -172 227 -181 382 -16
268 163 514 423 580 78 20 230 13 304 -13z"/>
</g>
</svg>
