<svg width="74" height="66" viewBox="0 0 74 66" fill="none" xmlns="http://www.w3.org/2000/svg">
<path d="M29.7839 0.0555344C26.9351 0.265388 23.1612 1.17822 20.2177 2.37436C14.6042 4.64071 9.53725 8.63831 6.00513 13.5697C3.44014 17.1476 1.54793 21.4915 0.622852 25.8773C-0.207617 29.8434 -0.207617 34.6594 0.622852 38.9298C2.31533 47.649 8.17066 55.917 15.9602 60.5966C24.8641 65.9477 35.8284 66.8081 45.279 62.8944C46.5299 62.3698 47.2658 62.0026 48.7901 61.1212L50.0726 60.3763V58.8549V57.323L49.2736 57.344C48.4957 57.3544 48.4642 57.3649 47.3604 58.0365C46.1094 58.7919 44.48 59.6838 44.3434 59.6838C44.2908 59.6838 44.5852 59.3375 44.9846 58.9178C45.6574 58.2358 46.2881 57.4699 46.2881 57.3649C46.2881 57.344 45.3631 57.3335 44.2277 57.344L42.1568 57.3649L41.2002 58.2988C39.35 60.093 37.3948 61.1632 35.2292 61.5619L34.7246 61.6458V59.4319L34.7141 57.218L34.0098 56.9033C32.7483 56.3577 31.6971 55.0986 30.9823 53.3044C30.9297 53.1575 30.8982 54.7209 30.9192 57.3335L30.9507 61.6039L30.4987 61.5409C29.7944 61.436 28.7642 61.0792 27.7235 60.5651C24.7275 59.0752 21.6684 55.6232 19.6501 51.4472C19.1244 50.377 18.3255 48.3835 18.3255 48.1631C18.3255 48.1107 18.4832 48.0372 18.6724 48.0057C22.5409 47.3132 24.7695 47.0299 27.0927 46.9145C28.0599 46.8726 28.5119 46.8096 28.4804 46.7362C28.4593 46.6732 28.207 45.8758 27.9337 44.9629L27.4186 43.2947L26.3674 43.3681C24.0442 43.515 20.4595 43.9976 18.2519 44.4488L17.2743 44.6482L17.1586 44.218C16.57 42.0461 15.8026 36.7894 15.8026 34.9217V34.2922H32.9901H50.1777V31.7425C50.1777 29.6965 50.2092 29.0775 50.3459 28.6158C50.7243 27.3672 51.3971 26.4229 52.3958 25.7934C52.6796 25.6045 52.9109 25.3842 52.9109 25.2792C52.9109 24.87 52.4483 22.3623 52.1119 20.8829C51.9017 19.9911 51.7545 19.2566 51.7755 19.2356C51.7966 19.2146 52.3537 19.0258 53.016 18.8264C53.6783 18.6271 54.9818 18.1969 55.9069 17.8716C56.8319 17.5463 57.6624 17.2526 57.7465 17.2316C57.9357 17.1791 58.2196 17.6408 59.2182 19.5504C60.7951 22.5617 61.8883 26.1186 62.2878 29.5496L62.414 30.6303L63.7806 31.8999C64.5374 32.6029 65.2943 33.2954 65.452 33.4423L65.7569 33.7151L65.6938 31.4068C65.6307 28.7102 65.3994 26.958 64.8002 24.5972C62.7188 16.4656 57.347 9.24687 50.1251 4.86105C45.9412 2.32189 40.99 0.664093 36.0597 0.139481C34.6721 0.00307465 31.203 -0.0493851 29.7839 0.0555344ZM30.9402 11.104C30.9402 17.2316 30.9192 18.1339 30.7825 18.1339C30.1623 18.1339 25.579 17.7772 23.9496 17.5988C21.9733 17.389 18.7775 16.9168 18.4201 16.7909C18.2519 16.7279 18.2729 16.623 18.6619 15.6367C20.3123 11.4293 23.2768 7.50513 26.1361 5.7529C27.4817 4.924 29.7208 4.0951 30.6564 4.07412H30.9402V11.104ZM36.3435 4.33643C37.4999 4.64071 39.0242 5.31222 39.9492 5.94176C42.1148 7.4107 44.5116 10.3905 46.0884 13.5697C46.7191 14.8603 47.4865 16.665 47.3919 16.665C47.3814 16.665 46.8979 16.7594 46.3302 16.8748C44.1226 17.326 40.0018 17.8611 37.8258 17.9765C37.195 18.008 36.2279 18.0605 35.7023 18.0919L34.7246 18.1444V11.1145V4.07412H35.0295C35.1977 4.07412 35.7864 4.18954 36.3435 4.33643ZM46.3092 6.76017C49.137 8.19763 52.3327 10.5899 54.5823 12.9507C55.56 13.9894 55.7282 14.1993 55.581 14.2832C55.3287 14.4301 52.196 15.4688 51.4392 15.6682C51.0817 15.7626 50.7559 15.8151 50.7348 15.7836C50.7033 15.7521 50.493 15.2695 50.2618 14.7029C49.0318 11.6391 47.003 8.28157 45.3841 6.63426C45.0792 6.31949 44.8585 6.06767 44.89 6.06767C44.911 6.06767 45.5523 6.38245 46.3092 6.76017ZM20.1441 6.77066C18.4201 8.77471 16.5489 11.9644 15.319 14.9967L14.909 16.004L14.0155 15.7521C12.9117 15.4584 10.21 14.5665 10.1049 14.4721C9.99979 14.3776 11.7553 12.4156 12.8066 11.4398C14.6883 9.68755 17.0746 7.99827 19.2926 6.8546C20.0075 6.47688 20.6067 6.1726 20.6172 6.1726C20.6382 6.1726 20.428 6.4454 20.1441 6.77066ZM9.4952 18.0395C10.1575 18.2703 11.419 18.648 12.281 18.8894C13.1535 19.1202 13.8683 19.33 13.8893 19.3405C13.9104 19.3615 13.7527 20.138 13.5529 21.0823C12.9643 23.8208 12.5227 27.3043 12.4071 29.9903L12.3861 30.5674L8.00246 30.5989L3.60834 30.6199V30.368C3.60834 29.9274 4.11292 27.1154 4.39676 25.9403C4.6911 24.7546 5.39542 22.6247 5.86847 21.4915C6.61484 19.7078 7.89734 17.4729 8.12861 17.5568C8.21271 17.5988 8.83293 17.8087 9.4952 18.0395ZM48.5273 20.3583C48.9898 22.5407 49.2526 23.8942 49.4313 25.0589C49.6731 26.6432 49.9674 29.4657 49.9674 30.1582V30.6199H42.346H34.7246V26.1816V21.7328L36.3856 21.6594C39.6864 21.523 44.3118 20.9669 46.9714 20.4003C48.4537 20.0855 48.4642 20.0855 48.5273 20.3583ZM18.1573 20.3898C21.1848 20.9669 25.7051 21.481 29.4475 21.6594L30.9402 21.7328V26.1711V30.6199H23.3714H15.8026V30.2107C15.8026 29.5391 16.0023 27.1888 16.181 25.8458C16.4543 23.6844 17.1481 20.2324 17.2953 20.2324C17.3163 20.2324 17.7053 20.3058 18.1573 20.3898ZM12.4386 35.2785C12.4386 37.1881 12.9012 40.9444 13.5004 43.7983C13.6686 44.6167 13.8052 45.3302 13.8052 45.3931C13.8052 45.4456 13.0378 45.7604 12.0917 46.0751C11.1456 46.4004 9.80006 46.8935 9.08523 47.1768L7.80273 47.691L7.48736 47.1559C6.42562 45.3617 5.30081 42.7176 4.72264 40.6611C4.23907 38.9928 3.60834 35.4778 3.60834 34.4915C3.60834 34.2922 3.71346 34.2922 8.02349 34.2922H12.4386V35.2785ZM15.3821 49.9993C16.8117 53.5772 18.704 56.7354 20.6277 58.7604C21.1113 59.2641 21.4897 59.6838 21.4582 59.6838C21.332 59.6838 18.5147 58.1519 17.6107 57.5748C15.34 56.1688 12.9117 54.0808 10.8933 51.8145L9.9157 50.7128L10.3047 50.5134C11.03 50.1462 14.4465 48.9081 14.8144 48.8871C14.8775 48.8766 15.1403 49.3802 15.3821 49.9993Z" fill="#265A3F"/>
<path d="M54.4982 28.6998C54.2985 28.8047 54.0356 29.0251 53.92 29.1825C53.7098 29.4658 53.6993 29.6231 53.6677 33.4634L53.6362 37.44L42.1988 37.461L30.772 37.4924L30.3305 37.7757C29.7628 38.1535 29.5316 38.6046 29.5316 39.3286C29.5421 39.8008 29.8469 40.7766 31.2976 44.8371C32.2647 47.5441 33.2529 50.3141 33.4842 50.9961C33.7154 51.6781 34.0518 52.4756 34.241 52.7798C34.5985 53.3779 35.3133 53.934 35.9651 54.1229C36.2174 54.1858 39.4446 54.2278 45.0056 54.2278H53.6467V58.0785C53.6467 61.5515 53.6677 61.9712 53.8359 62.2964C54.2144 63.0519 55.1394 63.3562 55.8858 62.9784C56.3589 62.7266 72.6424 47.5127 73.1259 46.8621C73.4203 46.4739 73.4833 45.645 73.2521 45.1729C73.1575 44.963 72.737 44.4699 72.3165 44.0817C67.6595 39.6644 56.3799 29.1405 56.075 28.9097C55.5704 28.5215 54.9712 28.448 54.4982 28.6998Z" fill="#265A3F"/>
</svg>
