<svg width="34" height="32" viewBox="0 0 34 32" fill="none" xmlns="http://www.w3.org/2000/svg">
<path d="M2 5.68433L12.3695 11.468C16.1581 13.581 17.8419 13.581 21.6305 11.468L32 5.68433" stroke="white" stroke-width="3" stroke-linejoin="round"/>
<path d="M31.994 13.793C31.9899 13.2526 31.9841 12.7139 31.9763 12.3548C31.8783 7.83584 31.8293 5.57635 30.1326 3.90259C28.4358 2.22883 26.0745 2.17052 21.3518 2.05391C18.441 1.98203 15.5589 1.98203 12.6482 2.05389C7.92549 2.1705 5.56412 2.2288 3.86742 3.90256C2.17073 5.57634 2.12171 7.83581 2.02364 12.3548C1.99211 13.8079 1.99213 15.2522 2.02366 16.7053C2.12171 21.2243 2.17075 23.4837 3.86744 25.1575C5.56412 26.8312 7.9255 26.8896 12.6482 27.0061C13.5602 27.0287 14.7435 27.0441 15.5 27.0525" stroke="white" stroke-width="3" stroke-linecap="round" stroke-linejoin="round"/>
<path d="M22.379 25.7973C21.4358 26.3404 18.9629 27.4495 20.4691 28.8372C21.2048 29.5151 22.0243 30 23.0546 30H28.9334C29.9636 30 30.7831 29.5151 31.5188 28.8372C33.0251 27.4495 30.5521 26.3404 29.6089 25.7973C27.3971 24.5236 24.5908 24.5236 22.379 25.7973Z" stroke="white" stroke-width="3"/>
<path d="M28.994 18.9474C28.994 20.5752 27.6507 21.8947 25.994 21.8947C24.3371 21.8947 22.994 20.5752 22.994 18.9474C22.994 17.3195 24.3371 16 25.994 16C27.6507 16 28.994 17.3195 28.994 18.9474Z" stroke="white" stroke-width="3"/>
</svg>
