<svg width="35" height="37" viewBox="0 0 35 37" fill="none" xmlns="http://www.w3.org/2000/svg">
<path d="M26.4737 2H10.9737C7.36929 2 4.44736 4.95492 4.44736 8.6V28.4C4.44736 32.0451 7.36929 35 10.9737 35H26.4737C30.0781 35 33 32.0451 33 28.4V8.6C33 4.95492 30.0781 2 26.4737 2Z" stroke="white" stroke-width="3"/>
<path d="M15.1995 21.3724C14.1736 22.0674 11.4837 23.4866 13.1221 25.2623C13.9224 26.1297 14.8138 26.7501 15.9343 26.7501H22.3288C23.4494 26.7501 24.3409 26.1297 25.1412 25.2623C26.7795 23.4866 24.0896 22.0674 23.0637 21.3724C20.6579 19.7427 17.6052 19.7427 15.1995 21.3724Z" stroke="white" stroke-width="3"/>
<path d="M22.3947 13.55C22.3947 15.3726 20.9338 16.85 19.1316 16.85C17.3293 16.85 15.8684 15.3726 15.8684 13.55C15.8684 11.7275 17.3293 10.25 19.1316 10.25C20.9338 10.25 22.3947 11.7275 22.3947 13.55Z" stroke="white" stroke-width="3"/>
<path d="M6.07895 8.6001H2M6.07895 18.5001H2M6.07895 28.4001H2" stroke="white" stroke-width="3" stroke-linecap="round" stroke-linejoin="round"/>
</svg>
