<svg width="81" height="52" viewBox="0 0 81 52" fill="none" xmlns="http://www.w3.org/2000/svg">
<path d="M19.9733 0.482616C19.7736 0.58754 19.5003 0.839355 19.3636 1.03871C19.1533 1.35348 19.1218 1.51087 19.1533 2.05647C19.2059 2.81192 19.4267 3.18965 19.9838 3.47295C20.2782 3.63033 20.6251 3.66181 21.8655 3.66181H23.3898L23.3583 5.58191L23.3267 7.51251L21.7499 7.57547C19.9523 7.6594 19.5844 7.77482 19.2269 8.3519C19.0587 8.62471 18.9957 8.88702 18.9957 9.3277C19.0062 10.0307 19.2059 10.4819 19.679 10.8176C20.0048 11.038 20.1415 11.0589 21.6868 11.0904L23.3372 11.1324V12.0137C23.3372 12.4964 23.3372 12.9266 23.3372 12.9686C23.3372 13.021 21.6868 13.0525 19.679 13.0525H16.0207L15.39 13.3673C14.8959 13.6296 14.7067 13.7975 14.4333 14.2486C14.0759 14.8467 14.0339 15.0356 13.5818 18.2462L13.298 20.2922L12.1942 20.3447C10.9853 20.4077 10.7015 20.5126 10.4071 21.0057C10.2179 21.31 10.1969 21.5408 10.1969 23.1986V25.0663H9.35592H8.51493V22.1494C8.51493 19.4528 8.50442 19.222 8.30469 18.9072C7.91574 18.2672 7.81061 18.2462 4.25747 18.2462C0.767395 18.2462 0.672785 18.2567 0.220758 18.8338C0 19.1171 0 19.1381 0 28.5707C0 37.6362 0.0105123 38.0349 0.199733 38.3496C0.588687 38.9897 0.798932 39.0211 4.22593 39.0211C7.66344 39.0211 7.81061 39.0002 8.27315 38.2972C8.50442 37.9614 8.51493 37.846 8.51493 36.0203V34.0897H9.35592H10.1969V35.9993C10.1969 37.0591 10.2495 38.1083 10.3125 38.3391C10.4071 38.6959 11.3007 39.6402 16.6409 44.9703C22.1073 50.4264 22.9167 51.1923 23.2952 51.2867C23.6 51.3707 28.0993 51.3917 38.2962 51.3812C52.74 51.3497 52.8662 51.3497 53.1605 51.1398C53.4654 50.9195 56.146 47.0163 56.6085 46.114C56.9344 45.474 56.9449 45.0018 56.6506 44.3932C56.2091 43.5014 55.0948 43.323 54.4325 44.026C54.2853 44.1939 53.581 45.2012 52.8767 46.2819L51.5837 48.2544H37.9072L24.2308 48.2649L18.7959 42.7774L13.3611 37.2899L13.3506 30.3544V23.4085L14.0128 23.4609C14.8328 23.5344 15.5687 23.2511 15.7999 22.7894C15.884 22.632 16.1994 21.247 16.4937 19.7152C16.7881 18.1833 17.0719 16.7878 17.114 16.6199L17.1981 16.3051L31.9888 16.2841L46.7901 16.2632L47.5154 15.4867C47.9149 15.0565 48.2933 14.5739 48.3564 14.4165C48.5036 14.0388 48.409 13.5981 48.1252 13.3568C47.9359 13.1784 47.6626 13.1574 45.0871 13.1259L42.2593 13.084V12.1082V11.1324L43.9202 11.0904C45.2553 11.0589 45.6337 11.017 45.9176 10.8701C46.4432 10.5868 46.6745 10.1251 46.6745 9.35918C46.6745 8.7716 46.6429 8.66668 46.3381 8.32043C45.8125 7.72236 45.5181 7.64891 43.7836 7.64891H42.2593V5.65536V3.66181H43.7836C45.5181 3.66181 45.865 3.56738 46.2645 3.02177C46.4642 2.73848 46.5168 2.52863 46.5168 2.0145C46.5168 1.32201 46.3591 0.986248 45.7914 0.577045C45.5076 0.356705 45.4445 0.356705 32.9244 0.32523C21.1086 0.304245 20.3202 0.314735 19.9733 0.482616ZM33.019 3.97658H39.1056V5.76028V7.54399H32.8508H26.596V5.69733C26.596 4.05003 26.6171 3.86116 26.7642 3.91362C26.8588 3.9451 29.6656 3.97658 33.019 3.97658ZM39.0846 12.0767L39.0531 13.0525L32.8298 13.084L26.596 13.105V12.1082V11.1114H32.8508H39.1161L39.0846 12.0767ZM5.46638 28.6861V35.9888L4.34157 35.9574L3.20624 35.9259L3.18522 28.7911C3.1747 24.8669 3.18522 21.5933 3.20624 21.5198C3.23778 21.4359 3.56366 21.3939 4.36259 21.3939H5.46638V28.6861ZM10.1759 29.6514L10.2074 31.0469H9.35592H8.51493V29.7039C8.51493 28.9589 8.54647 28.3189 8.58852 28.2769C8.63057 28.235 8.9985 28.2245 9.40848 28.235L10.1443 28.2665L10.1759 29.6514Z" fill="#265A3F"/>
<path d="M59.7938 10.0411C59.3838 10.2824 59.2471 10.6601 58.9843 12.1605C58.69 13.8603 58.7005 13.8183 58.3115 13.8918C58.1223 13.9338 57.5862 14.1331 57.1026 14.3325L56.2406 14.6997L55.0002 13.9128C53.581 12.9999 53.2656 12.853 52.8136 12.937C52.3406 13.0314 52.0357 13.2937 50.112 15.2768L48.3564 17.071V17.5851C48.3564 18.1202 48.409 18.2356 49.4497 19.862C49.7756 20.3761 50.0384 20.8482 50.0384 20.9007C50.0384 20.9637 49.8176 21.5198 49.5443 22.1388L49.0502 23.251L47.7782 23.5343C47.0844 23.6917 46.3276 23.912 46.0963 24.0274C45.3184 24.3842 45.3079 24.4576 45.3079 27.7312V30.6167L45.6337 30.9944C46.0017 31.4036 46.4327 31.561 48.0305 31.8443C48.9977 32.0226 49.0082 32.0226 49.1659 32.4004C49.25 32.6102 49.5023 33.1768 49.7335 33.6594L50.1435 34.5408L49.25 35.7999C48.409 37.0065 48.3564 37.1009 48.3564 37.6151C48.3564 38.3076 48.5877 38.6014 50.6796 40.6579C52.2565 42.2002 52.6875 42.473 53.2762 42.3262C53.4233 42.2947 54.1802 41.9065 54.9371 41.4763C55.694 41.0461 56.3668 40.6998 56.4193 40.6998C56.6191 40.6998 58.6059 41.6337 58.6795 41.7701C58.732 41.8435 58.9002 42.5675 59.0789 43.3754C59.3733 44.7394 59.4153 44.8653 59.7622 45.1801L60.1302 45.5263H62.979C66.8054 45.5263 66.6478 45.5998 67.1103 43.3754C67.268 42.6199 67.4362 41.9169 67.4887 41.791C67.5308 41.6651 67.7831 41.4973 68.0774 41.3818C68.3613 41.2769 68.8659 41.0566 69.2022 40.8992L69.812 40.6159L70.9893 41.2979C72.6398 42.2632 72.9761 42.3996 73.4492 42.3157C73.7856 42.2632 74.143 41.9589 75.7198 40.3956C76.75 39.3778 77.6646 38.4125 77.7592 38.2446C78.0536 37.678 77.9064 37.1954 76.9603 35.8209L76.1088 34.5618L76.5293 33.565C77.2231 31.9282 77.0549 32.0856 78.4215 31.7813C80.0719 31.4036 80.3663 31.2882 80.6816 30.9314L80.9444 30.6062V27.7627C80.9444 24.0169 81.0811 24.2583 78.6528 23.6077L77.2441 23.23L76.729 22.1283C76.4557 21.5198 76.2244 20.9741 76.2139 20.9112C76.2139 20.8482 76.5713 20.1872 77.0023 19.4318C77.8538 17.9419 77.9379 17.5956 77.6226 16.9346C77.4333 16.5359 74.4268 13.5455 73.8907 13.2203C73.2074 12.8006 72.7869 12.895 71.2206 13.8498L69.833 14.6997L69.2653 14.4059C68.9499 14.2485 68.4454 14.0177 68.13 13.9023L67.5623 13.6819L67.1313 12.0871C66.8895 11.2162 66.6267 10.4188 66.5426 10.3244C66.1747 9.8837 65.9434 9.85222 62.9474 9.85222C60.435 9.85222 60.0461 9.8837 59.7938 10.0411ZM64.272 13.598C64.6294 15.1719 64.7766 15.707 64.9553 15.9378C65.1445 16.2001 65.3758 16.2945 67.0157 16.8087C67.4782 16.9556 68.2456 17.2913 68.7082 17.5536C69.9276 18.2356 70.0958 18.2251 71.578 17.3018C72.2298 16.8926 72.7974 16.5673 72.8395 16.5673C72.8815 16.5673 73.2284 16.8926 73.6279 17.2913L74.3533 18.0153L73.7646 18.9176C73.4387 19.4108 73.1023 19.9564 73.0077 20.1243C72.7869 20.5545 72.8079 21.1735 73.0602 21.6037C73.691 22.7054 74.0379 23.4923 74.2797 24.3632C74.4374 24.8878 74.6266 25.4334 74.7002 25.5593C74.9209 25.9056 75.3414 26.0839 76.3821 26.2728C76.8972 26.3672 77.4228 26.4722 77.5595 26.4931C77.7908 26.5351 77.8013 26.5666 77.7697 27.6578L77.7382 28.7805L76.5819 29.0218C75.9511 29.1477 75.2888 29.3156 75.1312 29.3785C74.7843 29.5254 74.5109 30.0186 74.3217 30.837C74.1535 31.5924 73.7646 32.5053 73.26 33.3761C72.6187 34.4674 72.6713 34.8241 73.691 36.3455C73.9538 36.7442 74.2166 37.1429 74.2586 37.2164C74.3638 37.3842 72.892 38.8532 72.6923 38.7692C72.6082 38.7378 72.0826 38.423 71.5149 38.0662C70.1063 37.1744 69.9066 37.1639 68.6346 37.8459C68.0459 38.1712 67.1839 38.5069 66.4901 38.7063C64.8607 39.1784 64.7976 39.2519 64.3981 41.0985L64.1669 42.1898H63.1262H62.0854L61.8962 41.3084C61.4652 39.2939 61.3811 39.1784 59.983 38.8217C58.9738 38.5699 58.1013 38.2131 57.3865 37.7515C56.3457 37.0905 56.0409 37.1324 54.5061 38.1187L53.4549 38.8007L52.7611 38.1502C52.3721 37.7934 52.0567 37.4157 52.0462 37.3003C52.0462 37.1954 52.288 36.7442 52.5929 36.3035C53.7072 34.7192 53.7282 34.5513 52.9818 33.2502C52.6875 32.7361 52.2775 31.7918 52.0567 31.1413C51.836 30.4803 51.6047 29.8402 51.5311 29.7248C51.384 29.4415 50.8058 29.2421 49.4707 28.9903L48.451 28.791L48.4826 27.6473L48.5141 26.5036L49.5653 26.3253C50.7112 26.1259 51.2578 25.937 51.5206 25.6328C51.6257 25.5174 51.8465 24.9403 52.0357 24.3317C52.2144 23.7232 52.6244 22.7474 52.9398 22.1703C53.2551 21.5827 53.5074 20.9741 53.5074 20.8063C53.5074 20.4915 53.2341 19.9879 52.4352 18.7917L51.9201 18.0258L52.5718 17.3543C52.9293 16.9766 53.2972 16.6723 53.3813 16.6723C53.4654 16.6723 54.0225 16.9766 54.6112 17.3543C55.9147 18.1832 56.2196 18.2566 56.8714 17.8789C57.9121 17.2808 59.0684 16.7772 59.8568 16.5673C60.3089 16.4519 60.8135 16.2841 60.9711 16.2001C61.3286 16.0113 61.6229 15.2978 61.8121 14.1541C61.8857 13.7239 61.9488 13.3147 61.9698 13.2622C61.9803 13.1993 62.4323 13.1678 63.0841 13.1783L64.1774 13.1888L64.272 13.598Z" fill="#265A3F"/>
<path d="M62.1276 19.9879C60.8346 20.1768 59.8044 20.5545 58.8898 21.163C57.1343 22.3172 55.8623 24.1009 55.4418 25.9895C55.1895 27.1227 55.2841 28.9169 55.652 30.0501C56.7663 33.5021 60.2879 35.7789 63.9147 35.3802C65.0605 35.2543 66.1958 34.8871 67.0368 34.3834C69.5598 32.8725 70.8633 30.5747 70.8843 27.6368C70.8948 26.3463 70.7266 25.5279 70.222 24.4681C69.36 22.611 67.636 21.0581 65.7333 20.3971C64.5875 19.9984 63.1788 19.841 62.1276 19.9879ZM63.9462 23.1251C66.6479 23.6917 68.3824 26.4512 67.6045 28.9379C67.3312 29.8192 66.9737 30.3753 66.2904 31.0259C64.8503 32.3794 62.8004 32.6837 61.0133 31.8128C60.3615 31.498 59.3103 30.4488 58.9739 29.7878C58.6796 29.2107 58.4483 28.2664 58.4483 27.6368C58.4588 25.5698 60.0987 23.5763 62.1591 23.1251C63.0001 22.9467 63.0947 22.9467 63.9462 23.1251Z" fill="#265A3F"/>
<path d="M22.6015 27.5635C22.0233 27.8468 21.729 28.3714 21.7815 29.0324C21.8131 29.4206 21.8971 29.6514 22.0864 29.8508C22.6435 30.4384 22.2335 30.4174 31.1374 30.4174C39.1162 30.4174 39.379 30.4069 39.7049 30.2075C39.8941 30.1026 40.1149 29.8613 40.2095 29.6934C40.4408 29.2422 40.4092 28.4658 40.157 28.0566C39.7259 27.3536 39.9888 27.3746 31.0323 27.3746C23.5686 27.3746 22.9379 27.3851 22.6015 27.5635Z" fill="#265A3F"/>
<path d="M29.119 34.0687C28.0993 34.5828 27.9942 35.8734 28.9087 36.6498L29.2451 36.9226H33.1557C37.0557 36.9226 37.0768 36.9226 37.4342 36.6813C37.8442 36.4085 38.1595 35.8524 38.1595 35.4012C38.1595 34.9605 37.8336 34.3939 37.4237 34.1106C37.0768 33.8798 37.0452 33.8798 33.2818 33.8798C29.8759 33.8798 29.4449 33.9008 29.119 34.0687Z" fill="#265A3F"/>
</svg>
