<?xml version="1.0" standalone="no"?>
<!DOCTYPE svg PUBLIC "-//W3C//DTD SVG 20010904//EN"
 "http://www.w3.org/TR/2001/REC-SVG-20010904/DTD/svg10.dtd">
<svg version="1.0" xmlns="http://www.w3.org/2000/svg"
 width="1024.000000pt" height="1024.000000pt" viewBox="0 0 1024.000000 1024.000000"
 preserveAspectRatio="xMidYMid meet">

<g transform="translate(0.000000,1024.000000) scale(0.100000,-0.100000)"
fill="#265A3F" stroke="none">
<path d="M4140 8740 c-358 -34 -619 -160 -954 -464 -195 -177 -449 -532 -610
-855 -313 -623 -467 -1385 -468 -2316 -1 -580 66 -1061 219 -1565 89 -295 215
-592 355 -835 70 -121 227 -341 323 -453 312 -364 632 -577 995 -661 168 -40
266 -43 1240 -39 915 4 937 5 1027 26 205 47 328 102 519 230 184 123 320 253
499 477 285 356 503 819 649 1375 218 832 243 1873 66 2746 -73 359 -199 728
-360 1052 -149 300 -263 467 -481 702 -302 325 -564 490 -899 563 -92 20 -125
21 -1065 23 -533 1 -1008 -2 -1055 -6z m840 -437 c-225 -227 -383 -445 -539
-746 -256 -491 -417 -1082 -488 -1787 -25 -247 -24 -910 1 -1160 71 -708 221
-1301 451 -1777 170 -353 344 -602 602 -862 73 -74 132 -135 130 -135 -1 -1
-231 1 -512 4 -566 6 -535 3 -728 80 -408 164 -808 580 -1062 1105 -70 145
-157 367 -206 525 -17 58 -34 110 -36 116 -3 8 15 8 59 2 99 -13 156 -28 248
-65 145 -59 229 -117 381 -260 202 -190 341 -277 566 -352 121 -41 184 -42
223 -3 58 58 60 167 4 211 -14 11 -63 32 -107 45 -105 32 -243 100 -332 164
-38 27 -123 99 -188 161 -130 123 -223 189 -356 257 -166 83 -330 124 -503
124 l-76 0 -26 108 c-53 225 -95 560 -105 840 l-6 184 52 -7 c148 -18 338 -90
464 -176 35 -23 152 -129 259 -234 207 -202 279 -257 432 -330 114 -54 173
-70 220 -61 73 13 122 101 99 177 -12 39 -57 84 -99 100 -100 38 -182 77 -235
112 -34 22 -145 125 -247 227 -193 195 -249 239 -423 330 -111 59 -231 99
-389 131 l-116 23 5 71 c15 214 55 596 73 699 24 137 46 246 51 251 8 7 216
-45 264 -66 124 -55 230 -145 372 -316 170 -205 392 -373 493 -373 47 0 112
30 134 62 22 31 20 81 -4 128 -22 42 -57 72 -136 115 -87 46 -167 118 -261
237 -138 172 -273 292 -423 376 -50 27 -210 84 -317 112 -24 6 -43 13 -43 16
0 28 108 350 157 469 19 46 201 379 221 405 6 7 169 -80 221 -119 72 -53 156
-138 242 -243 43 -53 111 -125 149 -160 85 -76 230 -174 270 -183 73 -16 160
80 146 163 -8 52 -30 77 -134 157 -118 90 -170 141 -245 240 -113 148 -282
292 -427 365 -25 12 -47 24 -49 26 -5 5 99 132 171 210 33 35 101 97 152 138
183 148 297 211 462 257 155 43 216 47 720 48 l481 1 -157 -157z m1143 146
c285 -42 527 -177 787 -438 197 -199 332 -396 494 -722 229 -461 379 -1061
426 -1704 13 -179 13 -607 0 -795 -44 -635 -164 -1157 -383 -1670 -159 -372
-316 -612 -561 -855 -152 -151 -260 -232 -411 -308 -369 -184 -779 -147 -1126
102 -175 126 -394 376 -538 616 -182 304 -312 627 -426 1055 -81 306 -117 509
-152 850 -22 220 -25 920 -5 1125 80 801 259 1401 576 1928 195 323 476 602
728 720 198 93 396 125 591 96z"/>
<path d="M5870 7705 c-203 -41 -370 -135 -531 -302 -103 -105 -123 -130 -219
-263 -100 -140 -147 -232 -234 -458 -190 -495 -269 -961 -269 -1582 0 -305 14
-482 58 -746 95 -561 328 -1100 620 -1430 146 -166 356 -301 535 -346 71 -17
104 -20 210 -15 224 9 372 74 598 260 97 80 196 195 294 341 254 379 417 893
480 1516 17 166 17 697 0 870 -36 372 -92 646 -196 964 -158 480 -415 864
-705 1055 -197 129 -429 179 -641 136z m298 -289 c216 -58 386 -217 587 -549
143 -236 283 -660 346 -1045 59 -364 64 -874 13 -1272 -58 -452 -210 -905
-402 -1200 -303 -468 -685 -617 -1021 -400 l-61 39 71 108 c245 377 406 881
473 1478 77 685 30 1310 -145 1928 -69 244 -194 524 -315 705 -47 71 -61 98
-52 104 45 29 166 83 224 98 83 23 209 25 282 6z m-609 -521 c95 -192 153
-344 226 -590 65 -221 77 -286 107 -565 30 -283 33 -852 5 -1101 -32 -285 -89
-569 -157 -784 -66 -207 -175 -450 -263 -588 l-43 -68 -79 111 c-334 476 -496
1185 -456 1998 19 379 57 635 141 931 46 161 136 423 174 502 30 64 116 203
183 298 l46 64 18 -24 c10 -13 54 -96 98 -184z"/>
</g>
</svg>
