<svg width="85" height="53" viewBox="0 0 85 53" fill="none" xmlns="http://www.w3.org/2000/svg">
<path d="M0.88303 0.523407C0.620224 0.659809 0.367929 0.89064 0.23127 1.14246L0 1.55166L0.0210245 19.4412C0.0525613 37.3202 0.0525613 37.3412 0.273319 37.635C0.388954 37.7924 0.69381 38.0337 0.956616 38.1701L1.41916 38.4009L8.96696 38.3799L16.5253 38.3485L16.1679 38.6003C15.5161 39.0829 14.5174 40.1741 14.097 40.8876C13.8657 41.2758 13.5398 42.0103 13.3821 42.5139L13.0878 43.4373H10.302C7.07476 43.4373 7.07476 43.4373 7.02219 42.6189L6.99066 42.1257L5.90789 42.0942L4.82513 42.0628L4.49925 42.388C4.19439 42.6923 4.18388 42.7553 4.22593 43.3114C4.33105 44.4131 5.02486 45.4518 6.01302 45.9764C6.45453 46.2073 6.58068 46.2177 9.7659 46.2702L13.0562 46.3227L13.2875 47.1096C13.9918 49.5019 15.7894 51.4954 18.0811 52.4292C20.3938 53.3526 23.0639 53.1322 25.3135 51.8207C26.1545 51.3275 27.5211 49.9321 28.0467 49.0507C28.3936 48.4631 28.8877 47.1726 29.0769 46.3961C29.1085 46.3017 32.4093 46.2702 45.1712 46.2702H61.2445L61.4232 46.9837C62.096 49.5753 64.0092 51.6318 66.5952 52.5342C67.3731 52.807 67.5518 52.828 69.0656 52.828C70.6319 52.828 70.737 52.8175 71.6201 52.5027C72.9341 52.0305 73.6174 51.5899 74.6897 50.5196C75.7934 49.4179 76.235 48.7254 76.687 47.3719L77.0129 46.3856L78.8 46.3332C80.2506 46.3017 80.7027 46.2492 81.2598 46.0604C82.3636 45.6931 83.2046 45.0636 83.8143 44.1403C84.5502 43.0386 84.5186 43.4583 84.5291 34.6237L84.5396 26.6599L84.2768 26.1038C84.1402 25.7996 82.5633 23.4912 80.7868 20.9836C79.0102 18.4759 76.6554 15.1393 75.5517 13.5864C74.4479 12.0231 73.3441 10.5331 73.0813 10.2708C72.5872 9.74622 71.7988 9.30553 71.0524 9.13766C70.7686 9.06421 68.0144 9.02224 63.862 9.02224H57.1342V5.26597C57.1342 1.70905 57.1237 1.4992 56.9239 1.16344C56.8083 0.964088 56.577 0.712273 56.4193 0.586361L56.125 0.366024L28.7195 0.334545C1.40864 0.31356 1.31403 0.31356 0.88303 0.523407ZM54.2433 19.3572V35.4631H28.5723H2.89087L2.9119 19.3363C2.92241 10.4597 2.93292 3.19897 2.94343 3.19897C2.94343 3.19897 14.4859 3.20946 28.5934 3.23044L54.2433 3.25143V19.3572ZM59.8043 17.6994C59.7622 24.0998 59.7412 23.9004 60.4771 24.3411C60.803 24.5405 61.0763 24.551 70.2325 24.551H79.6515L80.4819 25.7261C80.9445 26.3662 81.3965 27.0377 81.4911 27.216C81.6593 27.5098 81.6698 28.1499 81.6803 34.7601C81.6803 42.6923 81.7013 42.4405 81.0391 42.9441C80.5029 43.3428 79.9878 43.4373 78.4005 43.4373H76.9708L76.7395 42.6818C75.9301 40.0063 73.7961 37.9497 71.0734 37.2258C69.9591 36.932 68.2561 36.932 67.1419 37.2363C65.8278 37.5825 64.5348 38.317 63.5992 39.2298C62.4429 40.3735 61.9173 41.3178 61.3286 43.3009C61.3075 43.4058 60.7924 43.4373 59.2366 43.4373H57.1867V27.6987V11.9601H58.5113H59.8358L59.8043 17.6994ZM70.9683 12.2434C71.2627 12.5687 77.4544 21.3298 77.528 21.5397C77.57 21.6341 76.0037 21.6656 70.1694 21.6656H62.7582V16.9335C62.7582 13.3976 62.7898 12.1805 62.8844 12.086C62.979 11.9916 64.0092 11.9601 66.858 11.9601H70.7055L70.9683 12.2434ZM54.2433 40.9191V43.4373H41.6391H29.0349L28.9613 43.091C28.6985 41.8424 27.6157 40.0272 26.575 39.0934C26.2176 38.7682 25.8917 38.5058 25.8392 38.5058C25.7971 38.5058 25.7551 38.4744 25.7551 38.4219C25.7551 38.3799 32.1675 38.359 39.9992 38.3799L54.2433 38.4009V40.9191ZM21.9812 39.8699C22.9483 40.0482 24.0205 40.6358 24.7354 41.3598C26.7642 43.4058 26.7853 46.4696 24.7879 48.5366C22.7696 50.635 19.5108 50.698 17.4609 48.6835C15.3689 46.6165 15.3584 43.4058 17.4399 41.3283C18.7013 40.0692 20.3097 39.5551 21.9812 39.8699ZM70.4427 40.0377C72.9446 40.7722 74.5215 43.1645 74.143 45.6512C74.0064 46.5325 73.4597 47.7077 72.8921 48.3582C72.3454 48.9877 71.3783 49.5858 70.5058 49.8586C69.9171 50.037 69.6017 50.0685 68.8028 50.0265C67.9513 49.9845 67.7095 49.9216 67.0157 49.5963C65.4914 48.8723 64.4087 47.4244 64.1248 45.7246C63.7043 43.2589 65.3758 40.6883 67.8146 40.0377C68.5715 39.8279 69.7384 39.8279 70.4427 40.0377Z" fill="#265A3F"/>
</svg>
