<svg width="75" height="53" viewBox="0 0 75 53" fill="none" xmlns="http://www.w3.org/2000/svg">
<path d="M1.20891 0.340115C0.735859 0.445038 0.357417 0.728333 0.168196 1.12704C0.0105123 1.44181 0 3.36192 0 21.5033C0 32.5203 0.0420491 41.6696 0.0946104 41.848C0.315368 42.6349 0.862006 43.2959 1.6294 43.7051C2.02887 43.9255 2.2286 43.936 4.98281 43.9884L7.91574 44.0409L8.05239 44.7124C8.44135 46.5905 9.21926 48.1329 10.4387 49.413C11.6791 50.714 12.7514 51.3331 14.5595 51.8053C15.842 52.141 16.725 52.2145 17.7237 52.0676C20.5199 51.6689 23.127 49.9271 24.4726 47.5768C24.851 46.8948 25.2505 45.7407 25.4397 44.6914L25.5658 43.9884H35.8994C41.576 43.9884 47.2106 44.0199 48.43 44.0619L50.6376 44.1248L50.7637 44.8698C51.1001 46.8528 51.6362 48.007 52.7611 49.1717C54.1066 50.5567 55.284 51.2701 57.0501 51.7738C58.1328 52.0781 60.5506 52.1095 61.5914 51.8262C63.7674 51.2387 65.3758 50.1475 66.427 48.5316C67.1734 47.3985 67.5623 46.2758 67.8567 44.3766L67.9197 43.9884H68.8974C71.578 43.9884 73.0918 43.1385 74.0274 41.103L74.2691 40.5784L74.3007 33.8633C74.3217 29.6348 74.2902 26.718 74.2166 25.973C74.0904 24.6615 73.733 23.287 73.281 22.3951C72.9026 21.6501 64.2825 8.82845 63.7989 8.28285C63.5782 8.04152 63.1892 7.77921 62.7582 7.60085L62.0749 7.31755L54.8004 7.28607L47.5154 7.2546V4.28525V1.30541L47.2526 0.990643C47.1055 0.822765 46.7901 0.59193 46.5483 0.497501C46.1173 0.31913 44.8348 0.308636 23.8103 0.287651C11.553 0.287651 1.37711 0.308636 1.20891 0.340115ZM44.2566 18.1247V32.5517L23.7998 32.5307C12.5516 32.5203 3.33239 32.4783 3.30085 32.4258C3.2588 32.3629 3.22727 5.69123 3.2588 3.77113C3.2588 3.72916 12.4886 3.69768 23.7577 3.69768H44.2566V18.1247ZM51.5311 17.0125C51.5627 23.287 51.5627 23.4129 51.7834 23.6962C51.899 23.8535 52.1303 24.0844 52.288 24.1998C52.5718 24.4201 52.6664 24.4201 61.707 24.4516L70.8421 24.4726L70.9788 24.9238C71.0839 25.2595 71.1155 27.0852 71.1155 32.7301V40.0853L70.8737 40.3476C70.5899 40.6519 69.5807 40.8407 68.2877 40.8407H67.5308L67.289 40.3266C66.448 38.4589 64.8186 36.7697 63.042 35.9198C61.6965 35.2693 61.0447 35.1329 59.3417 35.1433C57.7123 35.1433 56.7557 35.3322 55.5258 35.9093C54.1277 36.5598 52.3721 38.2596 51.4155 39.8754L50.8478 40.8407H49.1764H47.5154V25.7317V10.6227H49.5128H51.4996L51.5311 17.0125ZM61.5598 10.9059C62.1275 11.5145 68.0564 20.5694 68.2982 21.178C68.3402 21.3039 67.3416 21.3249 61.5388 21.3039L54.7163 21.2724L54.6848 15.9423L54.6638 10.6227H57.9751H61.297L61.5598 10.9059ZM11.3532 36.0877C10.7646 36.5283 9.80794 37.5566 9.33489 38.2491C8.93542 38.8367 8.21008 40.421 8.19957 40.7043C8.19957 40.8092 7.6319 40.8407 5.7397 40.8407C3.49007 40.8407 3.27983 40.8302 3.24829 40.6519C3.21675 40.5574 3.21675 39.4242 3.23778 38.1337L3.27983 35.8044H7.49524H11.7212L11.3532 36.0877ZM44.2882 37.5566C44.3302 38.5114 44.3618 39.6446 44.3618 40.0748V40.8407L34.9007 40.8197L25.4292 40.7883L25.0402 39.8964C24.2413 38.0602 23.4634 37.0215 22.265 36.2241L21.6342 35.8044H32.9244H44.2251L44.2882 37.5566ZM17.976 37.8504C20.0679 38.4065 21.6237 39.8859 22.1283 41.7955C22.3281 42.5405 22.3281 43.9989 22.1283 44.7649C21.897 45.6462 21.2663 46.7899 20.6986 47.3565C19.8682 48.1959 18.0496 48.9198 16.7671 48.9198C15.3479 48.9198 13.7921 48.3113 12.8355 47.3985C11.4899 46.1184 10.8487 43.915 11.3007 42.1628C11.6896 40.6728 12.9932 38.9626 14.2546 38.2911C15.3479 37.714 16.8091 37.5356 17.976 37.8504ZM60.9186 38.1547C61.9172 38.4694 62.6005 38.9101 63.3364 39.7075C64.0302 40.4525 64.3876 41.1135 64.6609 42.1837C64.9027 43.1385 64.9132 43.8415 64.703 44.6704C64.0407 47.2411 61.8016 49.0248 59.2366 49.0248C57.1131 49.0248 55.2104 47.8077 54.2328 45.8351C53.8018 44.9537 53.7702 44.8488 53.7387 43.831C53.6861 42.53 53.8228 41.806 54.3274 40.8092C54.853 39.7495 55.6414 38.9836 56.7662 38.4485C57.8069 37.9553 57.8805 37.9343 59.1525 37.9133C59.9094 37.9028 60.2983 37.9553 60.9186 38.1547Z" fill="#265A3F"/>
<path d="M20.7196 8.5242C20.4463 8.58715 19.7525 9.2167 17.6921 11.2732C16.2204 12.7316 14.9484 14.0537 14.8643 14.2111C14.5594 14.7882 14.7487 15.4702 15.3479 15.9423C15.5791 16.1312 16.2519 16.1102 16.6934 15.9003C17.156 15.68 21.9706 10.9165 22.2229 10.4443C22.7695 9.37408 21.8865 8.24091 20.7196 8.5242Z" fill="#265A3F"/>
<path d="M28.0678 10.371C27.6683 10.5388 15.3269 22.752 15.0956 23.2136C14.7277 23.9271 14.8433 24.6511 15.4005 25.0813C15.7894 25.3856 16.2415 25.3751 16.8407 25.0183C17.4083 24.6931 29.3292 12.7108 29.5815 12.2071C29.6761 12.0393 29.7497 11.6825 29.7497 11.4307C29.7497 10.8536 29.4659 10.4549 28.9298 10.308C28.4567 10.1821 28.5198 10.1821 28.0678 10.371Z" fill="#265A3F"/>
<path d="M30.1807 17.4741C29.9389 17.5476 29.0033 18.3975 27.1637 20.2022C24.3043 23.0036 24.1782 23.182 24.3254 24.0109C24.42 24.504 24.872 24.9657 25.3661 25.0496C26.0704 25.186 26.5119 24.8608 28.9718 22.3426C30.2227 21.0625 31.4316 19.793 31.6629 19.5097C32.2621 18.7437 32.1885 18.0722 31.4422 17.5791C31.0532 17.3167 30.7483 17.2958 30.1807 17.4741Z" fill="#265A3F"/>
</svg>
