<?xml version="1.0" standalone="no"?>
<!DOCTYPE svg PUBLIC "-//W3C//DTD SVG 20010904//EN"
 "http://www.w3.org/TR/2001/REC-SVG-20010904/DTD/svg10.dtd">
<svg version="1.0" xmlns="http://www.w3.org/2000/svg"
 width="1024.000000pt" height="1024.000000pt" viewBox="0 0 1024.000000 1024.000000"
 preserveAspectRatio="xMidYMid meet">

<g transform="translate(0.000000,1024.000000) scale(0.100000,-0.100000)"
fill="#265A3F" stroke="none">
<path d="M2705 9270 c-183 -38 -325 -165 -397 -356 l-23 -59 -3 -827 -3 -828
-103 0 c-122 0 -190 -17 -263 -67 -65 -44 -127 -134 -143 -206 -8 -36 -10
-204 -8 -552 l3 -500 29 -62 c33 -72 107 -148 176 -181 70 -33 164 -43 408
-42 l227 1 3 -633 2 -634 -51 -34 c-29 -19 -69 -60 -90 -90 -70 -100 -69 -88
-69 -902 0 -492 4 -744 11 -780 16 -77 62 -168 114 -226 l45 -50 0 -265 c0
-236 2 -272 20 -329 40 -131 133 -238 261 -302 107 -54 146 -58 472 -54 289 4
293 4 360 30 132 53 226 138 285 258 l37 75 3 243 3 242 1115 0 1114 0 0 -199
c0 -109 5 -223 10 -252 34 -182 201 -349 388 -388 85 -18 574 -14 647 4 198
50 360 217 395 404 6 29 10 162 10 293 l0 240 43 47 c23 26 54 70 69 98 58
107 58 100 58 904 0 689 -1 741 -18 797 -25 77 -72 145 -133 189 l-49 35 0
639 0 639 233 0 c128 0 260 5 293 11 122 22 221 98 273 208 l26 56 0 535 0
535 -33 67 c-38 77 -92 130 -171 166 -49 24 -71 27 -184 30 l-127 4 0 817 c0
901 3 860 -63 986 -41 77 -135 171 -213 212 -126 67 56 63 -2569 62 -1309 -1
-2398 -5 -2420 -9z m4802 -351 c34 -13 80 -55 99 -91 12 -23 14 -158 14 -828
l0 -801 -72 3 -72 3 -18 110 c-55 322 -98 510 -133 582 -47 94 -136 186 -231
235 -139 73 -3 69 -1996 66 l-1793 -3 -59 -23 c-162 -61 -296 -206 -346 -372
-16 -52 -110 -559 -110 -592 0 -4 -36 -8 -80 -8 l-80 0 0 794 c0 537 3 804 11
823 14 37 57 82 94 99 25 11 440 13 2387 14 1642 0 2365 -3 2385 -11z m-607
-1088 c49 -14 115 -73 133 -119 8 -21 18 -59 22 -85 l7 -47 -1931 0 c-1062 0
-1931 1 -1931 3 0 1 7 38 15 82 21 110 70 159 173 174 77 11 3473 3 3512 -8z
m224 -623 c2 -7 16 -110 31 -228 39 -314 134 -1040 140 -1077 l6 -33 -2171 0
c-1460 0 -2170 3 -2170 10 0 25 65 512 120 899 33 232 60 427 60 432 0 5 825
9 1990 9 1584 0 1991 -3 1994 -12z m-4844 -813 l0 -455 -85 0 -85 0 0 455 0
455 85 0 85 0 0 -455z m450 434 c0 -34 -90 -732 -95 -738 -3 -2 -5 167 -5 377
l0 382 50 0 c44 0 50 -3 50 -21z m4888 -351 c0 -205 -3 -357 -5 -338 -2 19
-22 181 -43 360 -22 179 -40 331 -40 338 0 8 16 12 45 12 l45 0 -2 -372z m532
-83 l0 -455 -87 0 -88 0 3 447 c1 247 2 451 2 456 0 4 38 7 85 7 l85 0 0 -455z
m-830 -1470 l0 -595 -22 -1 c-250 -8 -325 -16 -378 -40 -119 -55 -147 -95
-273 -384 l-96 -220 -57 -3 -57 -3 7 38 c26 160 91 633 115 844 33 294 32 321
-27 389 -73 86 49 80 -1403 80 l-1285 0 -53 -26 c-73 -37 -104 -86 -109 -173
-2 -37 10 -174 28 -311 36 -290 108 -797 116 -823 5 -16 0 -18 -52 -15 l-57 3
-108 239 c-93 205 -116 247 -156 288 -79 80 -133 100 -298 109 -77 4 -155 8
-172 8 l-33 1 0 595 0 595 2185 0 2185 0 0 -595z m-1090 -252 c0 -5 -12 -83
-27 -175 l-27 -168 -1047 0 -1046 0 -16 123 c-9 67 -19 146 -23 175 l-7 52
1097 0 c603 0 1096 -3 1096 -7z m-91 -695 c0 -7 -10 -76 -22 -153 l-22 -140
-961 -3 -962 -2 -15 107 c-9 60 -19 129 -23 155 l-6 48 1006 0 c803 0 1006 -2
1005 -12z m-2991 -4 l61 -7 20 -46 c11 -25 40 -90 65 -143 l45 -98 -294 0
-295 0 0 150 0 150 169 0 c92 0 195 -3 229 -6z m4362 -144 l0 -150 -295 0
c-162 0 -295 3 -295 6 0 17 124 271 138 282 11 9 75 12 234 12 l218 0 0 -150z
m-2 -890 l-3 -380 -33 -32 -32 -33 -2298 -3 c-2168 -3 -2299 -2 -2330 15 -62
32 -62 34 -62 443 l0 370 2380 0 2381 0 -3 -380z m-185 -1213 c-10 -16 -31
-39 -46 -51 -27 -20 -39 -21 -317 -21 l-288 0 -27 25 c-49 45 -55 74 -55 275
l0 185 373 2 372 3 3 -194 c2 -170 0 -197 -15 -224z m-3653 231 c0 -216 -10
-252 -79 -287 -38 -20 -57 -21 -308 -21 -268 0 -268 0 -304 24 -20 14 -41 37
-47 53 -7 16 -13 108 -14 221 l-3 192 378 0 377 0 0 -182z"/>
<path d="M3221 3153 c-26 -9 -65 -36 -92 -63 -105 -105 -105 -265 1 -370 166
-167 443 -52 443 183 0 186 -178 311 -352 250z"/>
<path d="M6856 3156 c-54 -20 -106 -65 -141 -121 -27 -44 -30 -57 -30 -130 0
-73 3 -87 30 -130 129 -209 437 -160 487 76 24 116 -35 239 -139 290 -59 28
-152 35 -207 15z"/>
</g>
</svg>
